<?xml version="1.0" standalone="no"?><svg xmlns="http://www.w3.org/2000/svg" viewBox="0 0 1440 320"><path fill="#f54254" fill-opacity="1" d="M0,288L30,277.3C60,267,120,245,180,229.3C240,213,300,203,360,208C420,213,480,235,540,245.3C600,256,660,256,720,240C780,224,840,192,900,160C960,128,1020,96,1080,101.3C1140,107,1200,149,1260,165.3C1320,181,1380,171,1410,165.3L1440,160L1440,320L1410,320C1380,320,1320,320,1260,320C1200,320,1140,320,1080,320C1020,320,960,320,900,320C840,320,780,320,720,320C660,320,600,320,540,320C480,320,420,320,360,320C300,320,240,320,180,320C120,320,60,320,30,320L0,320Z"></path></svg>