<?xml version="1.0" standalone="no"?><svg xmlns="http://www.w3.org/2000/svg" viewBox="0 0 1440 320"><path fill="#4E8864" fill-opacity="1" d="M0,0L0,192L45,192L45,224L90,224L90,224L135,224L135,64L180,64L180,96L225,96L225,64L270,64L270,64L315,64L315,32L360,32L360,192L405,192L405,96L450,96L450,224L495,224L495,256L540,256L540,320L585,320L585,192L630,192L630,32L675,32L675,192L720,192L720,320L765,320L765,224L810,224L810,160L855,160L855,288L900,288L900,160L945,160L945,96L990,96L990,64L1035,64L1035,64L1080,64L1080,224L1125,224L1125,192L1170,192L1170,288L1215,288L1215,96L1260,96L1260,288L1305,288L1305,320L1350,320L1350,256L1395,256L1395,32L1440,32L1440,320L1395,320L1395,320L1350,320L1350,320L1305,320L1305,320L1260,320L1260,320L1215,320L1215,320L1170,320L1170,320L1125,320L1125,320L1080,320L1080,320L1035,320L1035,320L990,320L990,320L945,320L945,320L900,320L900,320L855,320L855,320L810,320L810,320L765,320L765,320L720,320L720,320L675,320L675,320L630,320L630,320L585,320L585,320L540,320L540,320L495,320L495,320L450,320L450,320L405,320L405,320L360,320L360,320L315,320L315,320L270,320L270,320L225,320L225,320L180,320L180,320L135,320L135,320L90,320L90,320L45,320L45,320L0,320L0,320Z"></path></svg>