<?xml version="1.0" standalone="no"?><svg xmlns="http://www.w3.org/2000/svg" viewBox="0 0 1440 320"><path fill="#397454" fill-opacity="1" d="M0,160L0,224L41.1,224L41.1,160L82.3,160L82.3,96L123.4,96L123.4,96L164.6,96L164.6,160L205.7,160L205.7,256L246.9,256L246.9,128L288,128L288,288L329.1,288L329.1,96L370.3,96L370.3,320L411.4,320L411.4,288L452.6,288L452.6,128L493.7,128L493.7,96L534.9,96L534.9,160L576,160L576,192L617.1,192L617.1,160L658.3,160L658.3,288L699.4,288L699.4,160L740.6,160L740.6,288L781.7,288L781.7,32L822.9,32L822.9,192L864,192L864,160L905.1,160L905.1,32L946.3,32L946.3,320L987.4,320L987.4,96L1028.6,96L1028.6,128L1069.7,128L1069.7,256L1110.9,256L1110.9,288L1152,288L1152,320L1193.1,320L1193.1,96L1234.3,96L1234.3,128L1275.4,128L1275.4,32L1316.6,32L1316.6,64L1357.7,64L1357.7,128L1398.9,128L1398.9,256L1440,256L1440,320L1398.9,320L1398.9,320L1357.7,320L1357.7,320L1316.6,320L1316.6,320L1275.4,320L1275.4,320L1234.3,320L1234.3,320L1193.1,320L1193.1,320L1152,320L1152,320L1110.9,320L1110.9,320L1069.7,320L1069.7,320L1028.6,320L1028.6,320L987.4,320L987.4,320L946.3,320L946.3,320L905.1,320L905.1,320L864,320L864,320L822.9,320L822.9,320L781.7,320L781.7,320L740.6,320L740.6,320L699.4,320L699.4,320L658.3,320L658.3,320L617.1,320L617.1,320L576,320L576,320L534.9,320L534.9,320L493.7,320L493.7,320L452.6,320L452.6,320L411.4,320L411.4,320L370.3,320L370.3,320L329.1,320L329.1,320L288,320L288,320L246.9,320L246.9,320L205.7,320L205.7,320L164.6,320L164.6,320L123.4,320L123.4,320L82.3,320L82.3,320L41.1,320L41.1,320L0,320L0,320Z"></path></svg>