<?xml version="1.0" standalone="no"?><svg xmlns="http://www.w3.org/2000/svg" viewBox="0 0 1440 320"><path fill="#4E8864" fill-opacity="1" d="M0,0L0,32L45,32L45,192L90,192L90,128L135,128L135,320L180,320L180,32L225,32L225,0L270,0L270,224L315,224L315,224L360,224L360,160L405,160L405,160L450,160L450,160L495,160L495,256L540,256L540,160L585,160L585,224L630,224L630,128L675,128L675,288L720,288L720,288L765,288L765,32L810,32L810,224L855,224L855,224L900,224L900,320L945,320L945,256L990,256L990,0L1035,0L1035,128L1080,128L1080,128L1125,128L1125,32L1170,32L1170,256L1215,256L1215,128L1260,128L1260,0L1305,0L1305,224L1350,224L1350,32L1395,32L1395,128L1440,128L1440,320L1395,320L1395,320L1350,320L1350,320L1305,320L1305,320L1260,320L1260,320L1215,320L1215,320L1170,320L1170,320L1125,320L1125,320L1080,320L1080,320L1035,320L1035,320L990,320L990,320L945,320L945,320L900,320L900,320L855,320L855,320L810,320L810,320L765,320L765,320L720,320L720,320L675,320L675,320L630,320L630,320L585,320L585,320L540,320L540,320L495,320L495,320L450,320L450,320L405,320L405,320L360,320L360,320L315,320L315,320L270,320L270,320L225,320L225,320L180,320L180,320L135,320L135,320L90,320L90,320L45,320L45,320L0,320L0,320Z"></path></svg>