<?xml version="1.0" standalone="no"?><svg xmlns="http://www.w3.org/2000/svg" viewBox="0 0 1440 320"><path fill="#4E8864" fill-opacity="1" d="M0,192L0,192L45,192L45,0L90,0L90,32L135,32L135,192L180,192L180,128L225,128L225,192L270,192L270,128L315,128L315,160L360,160L360,160L405,160L405,96L450,96L450,256L495,256L495,96L540,96L540,192L585,192L585,96L630,96L630,96L675,96L675,96L720,96L720,160L765,160L765,0L810,0L810,224L855,224L855,128L900,128L900,32L945,32L945,192L990,192L990,128L1035,128L1035,64L1080,64L1080,128L1125,128L1125,192L1170,192L1170,96L1215,96L1215,0L1260,0L1260,32L1305,32L1305,224L1350,224L1350,256L1395,256L1395,64L1440,64L1440,320L1395,320L1395,320L1350,320L1350,320L1305,320L1305,320L1260,320L1260,320L1215,320L1215,320L1170,320L1170,320L1125,320L1125,320L1080,320L1080,320L1035,320L1035,320L990,320L990,320L945,320L945,320L900,320L900,320L855,320L855,320L810,320L810,320L765,320L765,320L720,320L720,320L675,320L675,320L630,320L630,320L585,320L585,320L540,320L540,320L495,320L495,320L450,320L450,320L405,320L405,320L360,320L360,320L315,320L315,320L270,320L270,320L225,320L225,320L180,320L180,320L135,320L135,320L90,320L90,320L45,320L45,320L0,320L0,320Z"></path></svg>