<?xml version="1.0" standalone="no"?><svg xmlns="http://www.w3.org/2000/svg" viewBox="0 0 1440 320"><path fill="#4E8864" fill-opacity="1" d="M0,288L0,192L45,192L45,192L90,192L90,32L135,32L135,256L180,256L180,192L225,192L225,224L270,224L270,224L315,224L315,256L360,256L360,64L405,64L405,128L450,128L450,128L495,128L495,320L540,320L540,192L585,192L585,288L630,288L630,128L675,128L675,320L720,320L720,160L765,160L765,288L810,288L810,320L855,320L855,224L900,224L900,96L945,96L945,0L990,0L990,320L1035,320L1035,256L1080,256L1080,160L1125,160L1125,224L1170,224L1170,64L1215,64L1215,288L1260,288L1260,256L1305,256L1305,96L1350,96L1350,160L1395,160L1395,320L1440,320L1440,320L1395,320L1395,320L1350,320L1350,320L1305,320L1305,320L1260,320L1260,320L1215,320L1215,320L1170,320L1170,320L1125,320L1125,320L1080,320L1080,320L1035,320L1035,320L990,320L990,320L945,320L945,320L900,320L900,320L855,320L855,320L810,320L810,320L765,320L765,320L720,320L720,320L675,320L675,320L630,320L630,320L585,320L585,320L540,320L540,320L495,320L495,320L450,320L450,320L405,320L405,320L360,320L360,320L315,320L315,320L270,320L270,320L225,320L225,320L180,320L180,320L135,320L135,320L90,320L90,320L45,320L45,320L0,320L0,320Z"></path></svg>